<svg width="102" height="25" viewBox="0 0 102 25" fill="none" xmlns="http://www.w3.org/2000/svg">
<path d="M39.8784 19.2872C38.6784 19.2872 37.6705 19.0872 36.8545 18.6873C36.0385 18.2713 35.3186 17.7033 34.6946 16.9833L36.5665 15.1594C37.0305 15.6874 37.5345 16.1034 38.0784 16.4073C38.6384 16.7113 39.2784 16.8633 39.9984 16.8633C40.7343 16.8633 41.2623 16.7353 41.5823 16.4793C41.9183 16.2233 42.0863 15.8714 42.0863 15.4234C42.0863 15.0554 41.9663 14.7674 41.7263 14.5594C41.5023 14.3354 41.1103 14.1834 40.5503 14.1034L39.3024 13.9354C37.9425 13.7594 36.9025 13.3755 36.1825 12.7835C35.4785 12.1755 35.1266 11.2955 35.1266 10.1436C35.1266 9.53561 35.2386 8.99164 35.4625 8.51165C35.6865 8.01567 36.0065 7.59969 36.4225 7.2637C36.8385 6.91172 37.3345 6.64773 37.9105 6.47174C38.5024 6.27974 39.1584 6.18375 39.8784 6.18375C40.4864 6.18375 41.0223 6.23174 41.4863 6.32774C41.9663 6.40774 42.3983 6.53573 42.7823 6.71173C43.1662 6.87172 43.5182 7.07971 43.8382 7.3357C44.1582 7.57569 44.4702 7.84768 44.7742 8.15167L42.9743 9.9516C42.6063 9.56761 42.1663 9.24763 41.6543 8.99164C41.1423 8.73565 40.5823 8.60765 39.9744 8.60765C39.3024 8.60765 38.8144 8.72765 38.5104 8.96764C38.2224 9.20763 38.0784 9.51961 38.0784 9.9036C38.0784 10.3196 38.1984 10.6396 38.4384 10.8636C38.6944 11.0716 39.1184 11.2235 39.7104 11.3195L40.9823 11.4875C43.6862 11.8715 45.0382 13.1035 45.0382 15.1834C45.0382 15.7914 44.9102 16.3513 44.6542 16.8633C44.4142 17.3593 44.0702 17.7913 43.6222 18.1593C43.1742 18.5113 42.6303 18.7912 41.9903 18.9992C41.3663 19.1912 40.6623 19.2872 39.8784 19.2872Z" fill="white"/>
<path d="M47.7506 18.9992V6.47174H50.8225V8.55965H50.9425C51.1985 7.88768 51.5985 7.3277 52.1425 6.87972C52.7024 6.41574 53.4704 6.18375 54.4464 6.18375C55.7423 6.18375 56.7343 6.60773 57.4222 7.4557C58.1102 8.30366 58.4542 9.51161 58.4542 11.0796V18.9992H55.3823V11.3915C55.3823 10.4956 55.2223 9.8236 54.9023 9.37562C54.5824 8.92764 54.0544 8.70365 53.3184 8.70365C52.9984 8.70365 52.6864 8.75164 52.3824 8.84764C52.0945 8.92764 51.8305 9.05563 51.5905 9.23163C51.3665 9.39162 51.1825 9.59961 51.0385 9.8556C50.8945 10.0956 50.8225 10.3836 50.8225 10.7196V18.9992H47.7506Z" fill="white"/>
<path d="M63.3954 4.64781C62.7554 4.64781 62.2914 4.50381 62.0034 4.21582C61.7314 3.92784 61.5955 3.55985 61.5955 3.11187V2.63189C61.5955 2.1839 61.7314 1.81592 62.0034 1.52793C62.2914 1.23994 62.7554 1.09595 63.3954 1.09595C64.0194 1.09595 64.4753 1.23994 64.7633 1.52793C65.0513 1.81592 65.1953 2.1839 65.1953 2.63189V3.11187C65.1953 3.55985 65.0513 3.92784 64.7633 4.21582C64.4753 4.50381 64.0194 4.64781 63.3954 4.64781ZM61.8594 6.47174H64.9313V18.9992H61.8594V6.47174Z" fill="white"/>
<path d="M68.492 6.47174H71.5639V8.53565H71.6599C71.8839 7.81568 72.3078 7.2477 72.9318 6.83172C73.5558 6.39974 74.2838 6.18375 75.1157 6.18375C76.7157 6.18375 77.9316 6.75172 78.7636 7.88768C79.6116 9.00763 80.0355 10.6156 80.0355 12.7115C80.0355 14.8234 79.6116 16.4473 78.7636 17.5833C77.9316 18.7192 76.7157 19.2872 75.1157 19.2872C74.2838 19.2872 73.5558 19.0712 72.9318 18.6393C72.3238 18.2073 71.8999 17.6313 71.6599 16.9113H71.5639V23.799H68.492V6.47174ZM74.1318 16.7433C74.9317 16.7433 75.5797 16.4793 76.0757 15.9514C76.5717 15.4234 76.8197 14.7114 76.8197 13.8154V11.6555C76.8197 10.7596 76.5717 10.0476 76.0757 9.51962C75.5797 8.97564 74.9317 8.70365 74.1318 8.70365C73.3958 8.70365 72.7798 8.88764 72.2838 9.25563C71.8039 9.62361 71.5639 10.1116 71.5639 10.7196V14.7034C71.5639 15.3594 71.8039 15.8634 72.2838 16.2153C72.7798 16.5673 73.3958 16.7433 74.1318 16.7433Z" fill="white"/>
<path d="M82.882 6.47174H85.9539V8.53565H86.0499C86.2739 7.81568 86.6979 7.2477 87.3219 6.83172C87.9458 6.39974 88.6738 6.18375 89.5058 6.18375C91.1057 6.18375 92.3217 6.75172 93.1536 7.88768C94.0016 9.00763 94.4256 10.6156 94.4256 12.7115C94.4256 14.8234 94.0016 16.4473 93.1536 17.5833C92.3217 18.7192 91.1057 19.2872 89.5058 19.2872C88.6738 19.2872 87.9458 19.0712 87.3219 18.6393C86.7139 18.2073 86.2899 17.6313 86.0499 16.9113H85.9539V23.799H82.882V6.47174ZM88.5218 16.7433C89.3218 16.7433 89.9698 16.4793 90.4657 15.9514C90.9617 15.4234 91.2097 14.7114 91.2097 13.8154V11.6555C91.2097 10.7596 90.9617 10.0476 90.4657 9.51962C89.9698 8.97564 89.3218 8.70365 88.5218 8.70365C87.7859 8.70365 87.1699 8.88764 86.6739 9.25563C86.1939 9.62361 85.9539 10.1116 85.9539 10.7196V14.7034C85.9539 15.3594 86.1939 15.8634 86.6739 16.2153C87.1699 16.5673 87.7859 16.7433 88.5218 16.7433Z" fill="white"/>
<path d="M100.344 18.9992C99.288 18.9992 98.5121 18.7352 98.0161 18.2073C97.5201 17.6793 97.2721 16.9353 97.2721 15.9754V1.23994H100.344V16.5513H102V18.9992H100.344Z" fill="white"/>
<path fill-rule="evenodd" clip-rule="evenodd" d="M14.9994 5.11925H5.11925V19.8798H19.8798V10.2351H14.9994V5.11925ZM0 2C0 0.89543 0.895431 0 2 0H22.999C24.1036 0 24.999 0.895431 24.999 2V22.999C24.999 24.1036 24.1036 24.999 22.999 24.999H2C0.89543 24.999 0 24.1036 0 22.999V2Z" fill="#9AE6B4"/>
</svg>
