<svg width="103" height="25" viewBox="0 0 103 25" fill="none" xmlns="http://www.w3.org/2000/svg">
<path d="M39.88 19.2879C38.68 19.2879 37.672 19.0879 36.856 18.6879C36.04 18.2719 35.32 17.7039 34.696 16.9839L36.568 15.1599C37.032 15.6879 37.536 16.1039 38.08 16.4079C38.64 16.7119 39.28 16.8639 40 16.8639C40.736 16.8639 41.264 16.7359 41.584 16.4799C41.92 16.2239 42.088 15.8719 42.088 15.4239C42.088 15.0559 41.968 14.7679 41.728 14.5599C41.504 14.3359 41.112 14.1839 40.552 14.1039L39.304 13.9359C37.944 13.7599 36.904 13.3759 36.184 12.7839C35.48 12.1759 35.128 11.2959 35.128 10.1439C35.128 9.53595 35.24 8.99195 35.464 8.51195C35.688 8.01595 36.008 7.59995 36.424 7.26395C36.84 6.91195 37.336 6.64795 37.912 6.47195C38.504 6.27995 39.16 6.18395 39.88 6.18395C40.488 6.18395 41.024 6.23195 41.488 6.32795C41.968 6.40795 42.4 6.53595 42.784 6.71195C43.168 6.87195 43.52 7.07995 43.84 7.33595C44.16 7.57595 44.472 7.84795 44.776 8.15195L42.976 9.95195C42.608 9.56795 42.168 9.24795 41.656 8.99195C41.144 8.73595 40.584 8.60795 39.976 8.60795C39.304 8.60795 38.816 8.72795 38.512 8.96795C38.224 9.20795 38.08 9.51995 38.08 9.90395C38.08 10.3199 38.2 10.6399 38.44 10.8639C38.696 11.0719 39.12 11.2239 39.712 11.3199L40.984 11.4879C43.688 11.8719 45.04 13.1039 45.04 15.1839C45.04 15.7919 44.912 16.3519 44.656 16.8639C44.416 17.3599 44.072 17.7919 43.624 18.1599C43.176 18.5119 42.632 18.7919 41.992 18.9999C41.368 19.1919 40.664 19.2879 39.88 19.2879Z" fill="white"/>
<path d="M47.7526 18.9999V6.47195H50.8246V8.55995H50.9446C51.2006 7.88795 51.6006 7.32795 52.1446 6.87995C52.7046 6.41595 53.4726 6.18395 54.4486 6.18395C55.7446 6.18395 56.7366 6.60795 57.4246 7.45595C58.1126 8.30395 58.4566 9.51195 58.4566 11.0799V18.9999H55.3846V11.3919C55.3846 10.4959 55.2246 9.82395 54.9046 9.37595C54.5846 8.92795 54.0566 8.70395 53.3206 8.70395C53.0006 8.70395 52.6886 8.75195 52.3846 8.84795C52.0966 8.92795 51.8326 9.05595 51.5926 9.23195C51.3686 9.39195 51.1846 9.59995 51.0406 9.85595C50.8966 10.0959 50.8246 10.3839 50.8246 10.7199V18.9999H47.7526Z" fill="white"/>
<path d="M63.398 4.64795C62.758 4.64795 62.294 4.50395 62.006 4.21595C61.734 3.92795 61.598 3.55995 61.598 3.11195V2.63195C61.598 2.18395 61.734 1.81595 62.006 1.52795C62.294 1.23995 62.758 1.09595 63.398 1.09595C64.022 1.09595 64.478 1.23995 64.766 1.52795C65.054 1.81595 65.198 2.18395 65.198 2.63195V3.11195C65.198 3.55995 65.054 3.92795 64.766 4.21595C64.478 4.50395 64.022 4.64795 63.398 4.64795ZM61.862 6.47195H64.934V18.9999H61.862V6.47195Z" fill="white"/>
<path d="M68.4948 6.47195H71.5668V8.53595H71.6628C71.8868 7.81595 72.3108 7.24795 72.9348 6.83195C73.5588 6.39995 74.2868 6.18395 75.1188 6.18395C76.7188 6.18395 77.9348 6.75195 78.7668 7.88795C79.6148 9.00795 80.0388 10.6159 80.0388 12.7119C80.0388 14.8239 79.6148 16.4479 78.7668 17.5839C77.9348 18.7199 76.7188 19.2879 75.1188 19.2879C74.2868 19.2879 73.5588 19.0719 72.9348 18.6399C72.3268 18.2079 71.9028 17.6319 71.6628 16.9119H71.5668V23.7999H68.4948V6.47195ZM74.1348 16.7439C74.9348 16.7439 75.5828 16.4799 76.0788 15.9519C76.5748 15.4239 76.8228 14.7119 76.8228 13.8159V11.6559C76.8228 10.7599 76.5748 10.0479 76.0788 9.51995C75.5828 8.97595 74.9348 8.70395 74.1348 8.70395C73.3988 8.70395 72.7828 8.88795 72.2868 9.25595C71.8068 9.62395 71.5668 10.1119 71.5668 10.7199V14.7039C71.5668 15.3599 71.8068 15.8639 72.2868 16.2159C72.7828 16.5679 73.3988 16.7439 74.1348 16.7439Z" fill="white"/>
<path d="M82.8854 6.47195H85.9574V8.53595H86.0534C86.2774 7.81595 86.7014 7.24795 87.3254 6.83195C87.9494 6.39995 88.6774 6.18395 89.5094 6.18395C91.1094 6.18395 92.3254 6.75195 93.1574 7.88795C94.0054 9.00795 94.4294 10.6159 94.4294 12.7119C94.4294 14.8239 94.0054 16.4479 93.1574 17.5839C92.3254 18.7199 91.1094 19.2879 89.5094 19.2879C88.6774 19.2879 87.9494 19.0719 87.3254 18.6399C86.7174 18.2079 86.2934 17.6319 86.0534 16.9119H85.9574V23.7999H82.8854V6.47195ZM88.5254 16.7439C89.3254 16.7439 89.9734 16.4799 90.4694 15.9519C90.9654 15.4239 91.2134 14.7119 91.2134 13.8159V11.6559C91.2134 10.7599 90.9654 10.0479 90.4694 9.51995C89.9734 8.97595 89.3254 8.70395 88.5254 8.70395C87.7894 8.70395 87.1734 8.88795 86.6774 9.25595C86.1974 9.62395 85.9574 10.1119 85.9574 10.7199V14.7039C85.9574 15.3599 86.1974 15.8639 86.6774 16.2159C87.1734 16.5679 87.7894 16.7439 88.5254 16.7439Z" fill="white"/>
<path d="M100.348 18.9999C99.292 18.9999 98.516 18.7359 98.02 18.2079C97.524 17.6799 97.276 16.9359 97.276 15.9759V1.23995H100.348V16.5519H102.004V18.9999H100.348Z" fill="white"/>
<path fill-rule="evenodd" clip-rule="evenodd" d="M15 5.11945H5.11945V19.8805H19.8805V10.2355H15V5.11945ZM0 2C0 0.89543 0.89543 0 2 0H23C24.1046 0 25 0.89543 25 2V23C25 24.1046 24.1046 25 23 25H2C0.89543 25 0 24.1046 0 23V2Z" fill="#B794F4"/>
</svg>
